<svg width="292" height="267" viewBox="0 0 292 267" fill="none" xmlns="http://www.w3.org/2000/svg">
<g clip-path="url(#clip0_340_3102)">
<path d="M106.24 235.467C104.272 234.034 102.49 232.97 100.597 232.309C98.704 231.647 96.7366 231.28 94.6578 231.207C90.5374 231.023 86.0457 231.794 81.7396 232.823C77.4336 233.888 73.3502 235.136 70.2692 236.164C67.2252 237.156 65.2578 237.964 65.2578 237.964C65.2578 237.964 67.1881 239.065 70.3434 240.387C73.4616 241.709 77.8048 243.215 82.5192 244.023C87.1964 244.831 92.3192 244.941 96.8108 243.656C101.228 242.407 105.015 239.726 106.277 235.467H106.24Z" fill="url(#paint0_linear_340_3102)"/>
<path d="M93.1008 216.595C94.7712 220.304 97.2212 223.939 100.414 226.326C102.01 227.501 103.792 228.383 105.685 228.75C107.578 229.117 109.62 229.007 111.624 228.199C111.736 223.755 110.511 220.23 108.58 217.145C106.65 214.097 103.903 211.453 101.082 209.14C98.2606 206.863 95.3652 204.953 93.175 203.595C90.9848 202.236 89.5 201.465 89.5 201.465C89.5 201.465 89.5 201.942 89.6114 202.787C89.6856 203.595 89.8341 204.807 90.0568 206.239C90.5394 209.066 91.4674 212.922 93.1379 216.631L93.1008 216.595Z" fill="url(#paint1_linear_340_3102)"/>
<path d="M62.1401 226.543C66.4462 226.323 70.2697 224.707 72.9424 221.145C70.7894 217.363 67.5598 215.306 63.6621 214.131C59.7644 212.956 55.2356 212.626 50.781 212.479C46.3265 212.368 41.9091 212.479 38.6053 212.479C35.2272 212.515 33.0742 212.589 33.0742 212.589C33.0742 212.589 33.4826 213.029 34.2621 213.764C35.0416 214.462 36.1553 215.49 37.5659 216.628C40.35 218.905 44.3219 221.586 48.7022 223.532C53.0826 225.515 57.8341 226.727 62.1401 226.543Z" fill="url(#paint2_linear_340_3102)"/>
<path d="M70.3462 209.684C72.7962 212.732 76.2114 214.752 80.4432 214.568C82.1879 210.455 81.8909 206.563 80.703 202.964C79.5152 199.402 77.4735 196.097 75.3576 193.232C73.2417 190.368 71.1258 187.944 69.5296 186.182C68.75 185.3 68.0818 184.602 67.6364 184.125C67.1909 183.648 66.9311 183.391 66.9311 183.391C66.9311 183.391 66.7826 183.831 66.5599 184.602C66.3371 185.41 66.1144 186.512 65.8917 187.908C65.4462 190.698 65.2235 194.518 65.8174 198.52C66.4114 202.486 67.8591 206.599 70.3091 209.684H70.3462Z" fill="url(#paint3_linear_340_3102)"/>
<path d="M17.5954 179.135C14.5514 178.18 12.5469 177.629 12.5469 177.629C12.5469 177.629 12.7325 178.143 13.1037 178.988C13.512 179.832 14.1431 181.007 14.9226 182.366C15.7022 183.762 16.6673 185.377 17.781 187.067C18.3378 187.911 18.9317 188.793 19.5628 189.637L20.0454 190.298L20.6764 191.106C21.0848 191.657 21.5302 192.171 21.9757 192.722C25.5393 196.945 29.9567 200.14 34.2999 201.499C38.6431 202.857 42.8378 202.417 46.4385 199.773C45.4363 195.513 43.0234 192.612 39.7567 190.078C38.9772 189.454 38.0491 188.866 37.1582 188.242C36.2673 187.654 35.3022 187.067 34.337 186.479C33.3719 185.891 32.3696 185.304 31.3673 184.753C30.4022 184.239 29.437 183.762 28.4719 183.321C24.5741 181.522 20.6022 180.126 17.5582 179.171L17.5954 179.135Z" fill="url(#paint4_linear_340_3102)"/>
<path d="M47.5173 186.7C48.668 190.373 51.3408 193.384 55.4241 194.339C58.2453 190.887 59.1733 187.141 59.3961 183.579C59.5817 180.017 59.1362 176.675 58.7279 173.847C58.5794 172.636 58.0968 170.616 57.6514 169.037C57.2059 167.421 56.6862 165.952 56.2408 164.704C55.7953 163.455 55.3499 162.463 55.0529 161.766C54.793 161.068 54.6074 160.664 54.6074 160.664C54.6074 160.664 54.3105 161.068 53.865 161.766C53.3824 162.5 52.7885 163.528 52.1203 164.814C50.7839 167.348 49.1506 170.946 48.037 174.912C47.74 175.904 47.4802 176.895 47.2946 177.96C47.1089 178.915 46.9605 179.87 46.8862 180.898C46.812 181.89 46.8862 182.881 46.9605 183.873C47.0718 184.864 47.2946 185.782 47.5544 186.737L47.5173 186.7Z" fill="url(#paint5_linear_340_3102)"/>
<path d="M12.9174 164.188C13.6227 165.033 14.4394 165.804 15.2932 166.502C16.1098 167.199 17.0007 167.86 17.8916 168.411C21.4553 170.688 25.3901 171.606 29.6962 170.394C30.0674 168.264 29.8818 166.318 29.325 164.519C29.028 163.637 28.6568 162.756 28.1742 161.948C27.6916 161.104 27.1348 160.332 26.578 159.524C24.2765 156.366 20.7129 153.612 17.1121 151.152C13.6227 148.691 9.9477 146.561 7.12649 145.019C4.26816 143.513 2.44922 142.559 2.44922 142.559C2.44922 142.559 2.52346 143.073 2.74619 143.991C3.00604 144.909 3.37725 146.194 3.93407 147.736C5.01058 150.821 6.49543 154.971 8.94543 158.753C10.1333 160.663 11.4697 162.536 12.9174 164.188Z" fill="url(#paint6_linear_340_3102)"/>
<path d="M36.1575 162.532C37.0113 164.185 38.2363 165.69 39.9439 166.865C43.8416 164.662 46.0689 161.357 47.2568 157.758C47.5537 156.877 47.7765 155.959 47.9621 155.004C48.0363 154.526 48.1106 154.086 48.1848 153.608C48.259 153.131 48.3333 152.654 48.4075 152.176C48.6674 150.267 48.7045 148.394 48.6674 146.558C48.4446 142.922 48.1848 139.507 47.7393 137.01C47.5166 135.761 47.2939 134.733 47.1454 134.035C47.034 133.338 46.9598 132.934 46.9598 132.934C46.9598 132.934 46.5886 133.264 45.9946 133.852C45.3636 134.439 44.584 135.321 43.6931 136.422C41.8742 138.626 39.6098 141.784 37.7537 145.456C36.009 149.092 34.8583 153.204 34.8954 157.097C34.8954 158.089 35.0439 159.007 35.2666 159.925C35.4893 160.843 35.8234 161.724 36.2318 162.532H36.1575Z" fill="url(#paint7_linear_340_3102)"/>
<path d="M5.41986 129.187C5.97668 130.178 6.53349 131.133 7.20168 131.978C7.86986 132.859 8.61228 133.667 9.39183 134.365C12.4729 137.303 16.1479 138.992 20.6024 138.588C21.382 136.568 21.6047 134.659 21.382 132.786C21.2706 131.868 21.0479 130.95 20.7509 130.032C20.4539 129.113 20.157 128.232 19.7486 127.351C18.932 125.551 17.7812 123.825 16.482 122.136C15.8138 121.292 15.1085 120.447 14.4774 119.639C13.8093 118.794 13.0668 117.986 12.3615 117.215C9.46607 114.02 6.23652 111.119 3.97213 108.953C1.63349 106.749 0.000160037 105.391 0.000160037 105.391C0.000160037 105.391 -0.0740824 107.594 0.148645 110.899C0.260008 112.552 0.594099 114.461 1.00243 116.518C1.18804 117.546 1.44789 118.611 1.70774 119.676C1.96758 120.741 2.22743 121.842 2.67289 122.907C3.45243 125.074 4.38046 127.167 5.4941 129.15L5.41986 129.187Z" fill="url(#paint8_linear_340_3102)"/>
<path d="M31.2172 136.236C35.4861 134.804 38.3073 132.013 40.1634 128.781C40.646 127.973 41.0172 127.166 41.3884 126.284C41.7967 125.44 42.1679 124.558 42.4649 123.677C43.096 121.914 43.5414 120.152 43.8384 118.426C44.1725 116.7 44.5437 115.01 44.6922 113.468C44.8035 112.66 44.8778 111.926 44.9149 111.228C44.952 110.53 44.9891 109.869 45.0634 109.245C45.3232 106.821 45.2861 105.242 45.2861 105.242C45.2861 105.242 43.6528 106.124 41.277 107.813C40.6831 108.217 40.052 108.694 39.3838 109.208C38.7157 109.722 38.0475 110.31 37.3793 110.897C36.08 112.109 34.7066 113.542 33.4444 115.084C32.8134 115.855 32.1823 116.663 31.5884 117.544C31.2914 117.948 30.9944 118.389 30.7346 118.83C30.4747 119.27 30.252 119.711 30.0293 120.152C29.1384 121.951 28.4702 123.824 28.099 125.733C27.9134 126.688 27.802 127.606 27.8391 128.561C27.8763 129.479 28.0247 130.397 28.2846 131.279C28.8043 133.078 29.6952 134.73 31.1429 136.199L31.2172 136.236Z" fill="url(#paint9_linear_340_3102)"/>
<path d="M15.7769 83.0664C14.7747 81.1568 13.6982 79.3207 12.6588 77.6314C11.5822 75.9055 10.6171 74.3264 9.80043 73.0044C8.12997 70.3603 6.90497 68.5977 6.90497 68.5977C6.90497 68.5977 6.27391 70.6908 5.60573 73.9224C5.34588 75.575 5.12315 77.4845 4.97467 79.5777C4.90043 80.6427 4.82618 81.7076 4.78906 82.8093C4.78906 83.911 4.86331 85.0494 4.97467 86.1878C5.16027 88.4646 5.45724 90.7781 6.05118 92.9448C6.71937 95.1114 7.57315 97.2046 8.64967 98.9673C10.7656 102.566 14.1807 105.063 18.5982 105.688C19.1921 104.806 19.6004 103.888 19.9345 103.007C20.2315 102.089 20.5656 101.207 20.6769 100.289C20.9739 98.4531 20.8254 96.5436 20.38 94.634C20.0088 92.7244 19.4148 90.7781 18.561 88.8318C17.7444 86.8855 16.705 84.9025 15.7398 83.0296L15.7769 83.0664Z" fill="url(#paint10_linear_340_3102)"/>
<path d="M39.7949 99.8843C41.1313 98.599 42.2449 97.1301 43.21 95.6244C44.2494 94.1188 45.1775 92.5764 45.9199 90.9974C46.2911 90.2262 46.5881 89.455 46.9593 88.6838C47.3305 87.9494 47.6646 87.2149 47.9616 86.4805C48.5555 85.0483 49.0009 83.7263 49.3722 82.6246C50.2631 80.3845 50.6343 78.8789 50.6343 78.8789C50.6343 78.8789 48.8153 79.3196 46.1055 80.3111C43.3214 81.3026 39.9805 82.9551 36.6767 85.3054C35.86 85.8929 35.0062 86.5172 34.2638 87.1782C33.5214 87.8392 32.8161 88.5737 32.1479 89.3081C30.8116 90.8138 29.6237 92.4296 28.807 94.1555C28.0646 95.8815 27.6562 97.7176 27.6562 99.517C27.6562 100.435 27.7305 101.316 28.0275 102.234C28.3244 103.153 28.7328 104.034 29.2896 104.915C33.7812 104.511 36.9737 102.455 39.7206 99.8843H39.7949Z" fill="url(#paint11_linear_340_3102)"/>
<path d="M26.7632 71.4655C27.3571 70.6944 27.8397 69.8865 28.2109 69.0418C28.5821 68.1972 28.842 67.3159 29.0276 66.3978C29.2132 65.4798 29.2874 64.525 29.3988 63.5702C29.5473 61.6606 29.3988 59.6041 29.0647 57.5109C28.7306 55.4178 28.3594 53.3613 27.8397 51.2314C26.7632 47.045 25.5753 43.1157 24.5359 40.1044C23.4965 37.0932 22.7541 35.1836 22.7541 35.1836C22.7541 35.1836 22.4571 35.6243 22.0117 36.4689C21.5662 37.3135 20.9723 38.5254 20.3041 39.9943C18.8935 42.9321 17.4829 47.1184 16.5549 51.5252C16.1837 53.7652 15.9609 56.0788 15.9609 58.2821C15.9609 59.3838 16.0723 60.5222 16.2208 61.5872C16.3693 62.6521 16.592 63.7171 16.9261 64.7086C17.5571 66.7283 18.3738 68.491 19.7473 70.0334C21.0837 71.5757 22.7541 72.7876 24.7958 73.6689C25.5753 72.9712 26.2435 72.2367 26.7632 71.4288V71.4655Z" fill="url(#paint12_linear_340_3102)"/>
<path d="M61.956 55.5235C62.3273 54.936 62.55 54.6055 62.55 54.6055C62.55 54.6055 62.0674 54.6055 61.2136 54.6055C60.3598 54.6055 59.2091 54.7156 57.7985 54.8992C56.3879 55.0829 54.7174 55.3399 52.9356 55.7439C52.0447 55.9642 51.1166 56.1845 50.1886 56.4416C49.2977 56.7354 48.3697 57.0292 47.4416 57.4331C45.5856 58.1676 43.6924 59.0489 42.0219 60.1506C40.3886 61.2523 38.8666 62.5376 37.6416 64.0065C37.0106 64.7042 36.528 65.5121 36.1197 66.32C35.7113 67.1279 35.3773 67.9725 35.1545 68.8538C34.9318 69.7352 34.8204 70.6533 34.8204 71.5713C34.8576 72.5261 35.0432 73.4809 35.3773 74.4724C37.5674 74.8396 39.6091 74.7295 41.5023 74.3255C43.3583 73.9216 45.1773 73.2238 46.7735 72.3058C47.5901 71.8651 48.3326 71.351 49.075 70.8001C49.4462 70.5431 49.7803 70.2493 50.1515 69.9555C50.5227 69.6617 50.8568 69.368 51.228 69.0742C52.6386 67.8991 53.8636 66.577 54.9773 65.255C56.1651 63.9697 57.2416 62.6477 58.1326 61.3992C58.3553 61.1054 58.578 60.7749 58.8007 60.4811C59.0235 60.1873 59.2462 59.8935 59.4689 59.5997C59.8773 59.0122 60.2485 58.4981 60.5826 57.984C61.2507 56.9924 61.7704 56.1111 62.1416 55.5235H61.956Z" fill="url(#paint13_linear_340_3102)"/>
<path d="M38.8654 44.4321C40.7586 43.4773 42.2063 42.2287 43.2828 40.7231C44.4336 39.2909 45.2131 37.6017 45.7699 35.7288C46.9207 32.0566 47.1063 27.6866 47.0692 23.4635C47.0692 22.3985 46.9949 21.3336 46.9207 20.3053C46.8836 19.2771 46.8093 18.2856 46.7351 17.2941C46.5866 15.3478 46.401 13.5116 46.2154 11.9693C45.8813 8.88459 45.5472 6.82812 45.5472 6.82812C45.5472 6.82812 45.176 7.23207 44.582 7.9298C43.951 8.62753 43.0972 9.61905 42.132 10.9411C41.1669 12.2264 40.0533 13.732 39.0139 15.4947C37.9745 17.2574 36.898 19.1302 36.0442 21.1867C35.1904 23.2431 34.4108 25.3731 33.9283 27.5397C33.4828 29.7063 33.223 31.873 33.3343 33.9294C33.5942 38.0791 35.2646 41.7881 38.8283 44.4688L38.8654 44.4321Z" fill="url(#paint14_linear_340_3102)"/>
<path d="M70.0486 42.1995C71.4963 41.1712 72.8327 40.1063 74.0206 39.078C75.2085 38.0498 76.3221 37.095 77.1759 36.2137C78.0297 35.3323 78.8092 34.6346 79.2918 34.1205C79.7744 33.6064 80.0342 33.3126 80.0342 33.3126C80.0342 33.3126 78.1782 32.9086 75.2827 32.6148C73.835 32.468 72.1645 32.3945 70.3456 32.4312C68.5266 32.4312 66.5221 32.5781 64.5547 32.8719C60.5456 33.4595 56.5365 34.7815 53.4925 37.0583C52.0077 38.1967 50.7456 39.5921 49.8547 41.1712C49.038 42.787 48.6297 44.6231 48.7039 46.6429C52.8244 48.4423 56.7221 48.2587 60.2857 47.2304C62.1047 46.7163 63.8122 45.9819 65.4085 45.1005C67.0418 44.2559 68.6009 43.2644 70.0115 42.1995H70.0486Z" fill="url(#paint15_linear_340_3102)"/>
<path d="M62.1048 209.065C73.8351 218.686 88.1639 225.26 102.196 230.878C113.703 235.469 128.44 242.96 143.437 249.974C129.925 254.124 116.636 257.539 105.908 259.302C104.497 259.522 111.736 266.793 113.072 266.389C125.508 262.68 138.129 258.2 150.565 253.242C164.151 259.338 177.552 264.59 188.614 266.426C189.987 266.646 194.331 259.338 192.92 259.118C182.452 257.392 170.313 254.307 157.655 250.378C178.517 241.711 198.562 231.906 215.935 222.579C234.793 212.407 248.936 198.011 258.216 178.842C266.828 161.105 272.916 141.495 273.807 121.775C275.032 94.4904 265.789 67.7196 251.423 44.6945C247.228 37.9743 242.514 31.2541 237.28 25.0112C237.725 23.2853 237.799 21.596 237.502 20.0169C237.168 18.1441 236.389 16.3447 235.275 14.7289C233.085 11.4239 229.559 8.7431 225.921 6.76008C222.283 4.77705 218.459 3.56521 215.638 2.86748C214.227 2.53697 213.04 2.31664 212.223 2.20647C211.815 2.16975 211.481 2.13303 211.295 2.0963C211.109 2.0963 210.998 2.0963 210.998 2.0963C210.998 2.0963 211.035 2.16975 211.109 2.39008C211.221 2.5737 211.332 2.86748 211.518 3.2347C211.889 3.93243 212.409 4.96067 213.114 6.20924C214.45 8.66965 216.306 11.938 218.459 15.0961C219.536 16.7119 220.761 18.2175 222.023 19.6497C222.654 20.3474 223.322 21.0452 224.027 21.6695C224.696 22.2937 225.438 22.918 226.181 23.4321C227.702 24.4604 229.299 25.305 231.118 25.7457C232.491 26.0762 233.902 26.2231 235.461 26.1496C245.484 37.8641 253.687 51.4882 259.924 65.149C267.868 82.5556 272.099 101.504 271.654 120.637C271.171 141.459 264.118 162.611 254.69 181.119C247.34 195.514 236.649 207.266 222.951 216.006C210.701 223.827 197.263 229.703 183.937 235.432C173.951 239.728 162.072 244.098 150.045 248.028C124.246 239.508 97.3328 227.977 78.6609 217.548C68.898 212.113 60.0631 205.429 52.7502 196.983C45.4374 188.537 40.2033 178.549 35.9715 168.34C27.9533 148.95 22.8677 128.9 24.1298 107.857C25.5775 83.3267 35.3404 59.8243 48.9268 39.4432C52.4162 34.2286 56.1654 29.014 60.2859 24.1299C61.7707 24.2033 63.1442 24.0564 64.4805 23.7259C66.2624 23.2853 67.8957 22.4406 69.4177 21.4124C70.1601 20.8983 70.9025 20.3107 71.5707 19.6497C72.276 19.0254 72.9442 18.3644 73.5752 17.63C74.8374 16.1978 76.0624 14.6554 77.1389 13.0764C79.2919 9.91822 81.148 6.64991 82.4843 4.18949C83.1525 2.94092 83.7093 1.91269 84.0434 1.21496C84.229 0.847734 84.3775 0.590675 84.4518 0.37034C84.526 0.186726 84.5631 0.113281 84.5631 0.113281H84.2662C84.0434 0.113281 83.7465 0.186726 83.3381 0.223449C82.5215 0.333617 81.3336 0.553953 79.923 0.884456C77.1018 1.54546 73.3154 2.79403 69.6404 4.77705C66.0025 6.76008 62.476 9.44083 60.2859 12.7459C59.1722 14.3617 58.3927 16.1611 58.0586 18.0339C57.7616 19.5763 57.8358 21.2288 58.2442 22.9548C48.6669 34.2286 40.723 47.1917 34.598 60.1915C26.9881 76.276 22.4222 93.6458 21.7169 111.383C20.9374 131.764 26.5427 151.3 34.2639 169.992C40.5002 185.012 49.3722 198.709 62.1048 209.175V209.065Z" fill="url(#paint16_linear_340_3102)"/>
<path d="M213 246.078C217.714 245.27 222.057 243.801 225.176 242.442C228.294 241.12 230.261 240.018 230.261 240.018C230.261 240.018 228.257 239.247 225.213 238.219C222.169 237.191 218.085 235.906 213.742 234.877C209.436 233.849 204.944 233.078 200.824 233.262C198.745 233.335 196.778 233.702 194.885 234.363C192.991 235.061 191.21 236.089 189.242 237.521C190.504 241.781 194.291 244.462 198.708 245.71C203.163 246.996 208.285 246.886 212.963 246.078H213Z" fill="url(#paint17_linear_340_3102)"/>
<path d="M189.837 230.802C191.73 230.435 193.512 229.554 195.108 228.378C198.301 225.991 200.751 222.356 202.421 218.647C204.092 214.938 205.02 211.119 205.502 208.254C205.725 206.822 205.873 205.647 205.948 204.802C206.022 203.958 206.022 203.48 206.022 203.48C206.022 203.48 204.537 204.288 202.347 205.61C200.157 206.969 197.261 208.879 194.44 211.155C191.619 213.432 188.872 216.076 186.942 219.161C185.011 222.246 183.786 225.771 183.898 230.215C185.865 231.059 187.907 231.133 189.8 230.765L189.837 230.802Z" fill="url(#paint18_linear_340_3102)"/>
<path d="M244.739 214.531C240.285 214.678 235.756 214.972 231.858 216.147C227.961 217.322 224.731 219.378 222.578 223.161C225.251 226.723 229.074 228.375 233.38 228.559C237.686 228.779 242.438 227.531 246.818 225.548C251.199 223.601 255.171 220.921 257.955 218.644C259.365 217.542 260.479 216.477 261.258 215.78C262.038 215.045 262.446 214.604 262.446 214.604C262.446 214.604 260.293 214.568 256.915 214.494C253.611 214.494 249.194 214.384 244.739 214.494V214.531Z" fill="url(#paint19_linear_340_3102)"/>
<path d="M215.081 216.627C219.313 216.847 222.728 214.827 225.178 211.743C227.628 208.658 229.075 204.582 229.669 200.579C230.263 196.576 230.078 192.757 229.595 189.966C229.372 188.571 229.15 187.469 228.927 186.661C228.704 185.89 228.593 185.449 228.593 185.449C228.593 185.449 228.333 185.706 227.888 186.184C227.405 186.661 226.774 187.359 225.994 188.24C224.435 190.003 222.282 192.427 220.166 195.291C218.088 198.155 216.009 201.424 214.821 205.022C213.67 208.621 213.373 212.514 215.081 216.627Z" fill="url(#paint20_linear_340_3102)"/>
<path d="M273.51 194.781C273.955 194.266 274.401 193.716 274.809 193.165L275.44 192.357L275.923 191.696C276.554 190.814 277.148 189.97 277.704 189.125C278.818 187.436 279.783 185.82 280.563 184.425C281.342 183.029 281.973 181.854 282.382 181.046C282.79 180.202 282.976 179.688 282.976 179.688C282.976 179.688 281.008 180.275 277.927 181.193C274.883 182.148 270.911 183.543 267.014 185.343C266.048 185.783 265.083 186.261 264.118 186.775C263.079 187.363 262.114 187.913 261.148 188.501C260.183 189.088 259.218 189.639 258.327 190.264C257.436 190.851 256.545 191.439 255.729 192.1C252.462 194.634 250.049 197.535 249.047 201.795C252.648 204.439 256.842 204.916 261.186 203.52C265.529 202.162 269.909 198.967 273.51 194.744V194.781Z" fill="url(#paint21_linear_340_3102)"/>
<path d="M247.525 176.968C246.412 173.002 244.778 169.44 243.405 166.906C242.737 165.621 242.143 164.592 241.66 163.895C241.177 163.197 240.918 162.793 240.918 162.793C240.918 162.793 240.769 163.197 240.509 163.895C240.212 164.592 239.767 165.584 239.321 166.832C238.876 168.081 238.356 169.513 237.911 171.166C237.465 172.745 236.983 174.765 236.834 175.94C236.463 178.767 235.98 182.146 236.166 185.708C236.389 189.27 237.317 193.016 240.138 196.431C244.221 195.476 246.894 192.465 248.045 188.793C248.305 187.875 248.565 186.92 248.639 185.928C248.713 184.937 248.75 183.945 248.713 182.954C248.639 181.962 248.49 180.971 248.305 180.016C248.082 178.988 247.859 177.959 247.562 176.968H247.525Z" fill="url(#paint22_linear_340_3102)"/>
<path d="M292.774 146.043C292.997 145.125 293.108 144.574 293.108 144.574C293.108 144.574 291.289 145.529 288.431 147.035C285.61 148.577 281.935 150.707 278.482 153.167C274.882 155.591 271.318 158.345 269.016 161.54C268.46 162.348 267.866 163.119 267.383 163.964C266.9 164.808 266.529 165.653 266.232 166.571C265.675 168.37 265.49 170.317 265.861 172.447C270.167 173.659 274.102 172.74 277.666 170.464C278.557 169.913 279.41 169.252 280.264 168.554C281.081 167.856 281.935 167.085 282.64 166.241C284.088 164.551 285.424 162.678 286.612 160.769C289.099 156.986 290.584 152.837 291.623 149.752C292.143 148.21 292.551 146.924 292.811 146.006L292.774 146.043Z" fill="url(#paint23_linear_340_3102)"/>
<path d="M255.617 168.963C257.324 167.788 258.549 166.282 259.403 164.63C259.811 163.822 260.145 162.904 260.368 162.022C260.591 161.104 260.776 160.186 260.739 159.195C260.739 155.302 259.626 151.189 257.881 147.554C256.025 143.881 253.761 140.723 251.942 138.52C251.014 137.418 250.271 136.537 249.64 135.949C249.046 135.362 248.675 135.031 248.675 135.031C248.675 135.031 248.601 135.435 248.452 136.133C248.304 136.831 248.081 137.859 247.858 139.107C247.376 141.605 247.153 145.02 246.93 148.655C246.856 150.455 246.93 152.364 247.153 154.274C247.227 154.751 247.301 155.229 247.376 155.706C247.45 156.183 247.487 156.624 247.598 157.102C247.784 158.02 248.007 158.974 248.304 159.856C249.492 163.455 251.719 166.76 255.617 168.963Z" fill="url(#paint24_linear_340_3102)"/>
<path d="M283.198 119.233C282.456 120.041 281.75 120.849 281.082 121.657C280.414 122.502 279.746 123.309 279.04 124.154C277.741 125.843 276.59 127.606 275.774 129.369C275.365 130.25 275.031 131.168 274.772 132.086C274.475 133.004 274.252 133.922 274.14 134.84C273.918 136.713 274.14 138.623 274.92 140.643C279.375 141.047 283.087 139.357 286.131 136.419C286.91 135.685 287.615 134.877 288.321 134.032C288.989 133.151 289.546 132.233 290.103 131.242C291.179 129.259 292.107 127.129 292.924 124.999C293.332 123.934 293.629 122.832 293.889 121.767C294.149 120.702 294.372 119.637 294.557 118.609C294.928 116.553 295.262 114.643 295.411 112.954C295.597 109.649 295.559 107.445 295.559 107.445C295.559 107.445 293.926 108.804 291.625 110.971C289.397 113.137 286.168 116.038 283.272 119.233H283.198Z" fill="url(#paint25_linear_340_3102)"/>
<path d="M267.16 133.375C267.42 132.493 267.568 131.575 267.605 130.657C267.605 129.739 267.494 128.784 267.308 127.83C266.937 125.957 266.269 124.084 265.378 122.284C265.155 121.844 264.932 121.403 264.673 120.962C264.413 120.522 264.116 120.081 263.819 119.677C263.225 118.832 262.594 118.025 261.963 117.217C260.664 115.674 259.327 114.242 258.028 113.03C257.397 112.406 256.729 111.855 256.023 111.341C255.355 110.827 254.724 110.35 254.13 109.946C251.792 108.256 250.121 107.375 250.121 107.375C250.121 107.375 250.121 108.954 250.381 111.378C250.455 111.965 250.492 112.626 250.529 113.361C250.567 114.059 250.641 114.793 250.752 115.601C250.901 117.143 251.272 118.832 251.606 120.558C251.903 122.284 252.348 124.084 252.979 125.81C253.276 126.691 253.648 127.536 254.056 128.417C254.427 129.262 254.798 130.106 255.281 130.914C257.137 134.109 259.958 136.9 264.227 138.369C265.675 136.9 266.603 135.211 267.085 133.448L267.16 133.375Z" fill="url(#paint26_linear_340_3102)"/>
<path d="M275.104 96.7621C274.658 98.6717 274.51 100.545 274.807 102.417C274.955 103.335 275.252 104.254 275.549 105.135C275.883 106.053 276.292 106.934 276.886 107.816C281.303 107.191 284.718 104.694 286.834 101.095C287.911 99.296 288.764 97.2395 289.433 95.0729C290.027 92.9063 290.324 90.5927 290.509 88.3159C290.583 87.1775 290.658 86.0391 290.695 84.9007C290.695 83.799 290.62 82.7341 290.509 81.6691C290.361 79.5759 290.101 77.6296 289.878 75.9771C289.21 72.7455 288.579 70.6523 288.579 70.6523C288.579 70.6523 287.354 72.3783 285.683 75.0591C284.867 76.3811 283.902 77.9234 282.825 79.6494C281.786 81.3754 280.709 83.2115 279.707 85.1211C278.742 86.9939 277.702 88.9769 276.886 90.9232C276.032 92.8695 275.438 94.8158 275.067 96.7254L275.104 96.7621Z" fill="url(#paint27_linear_340_3102)"/>
<path d="M266.642 96.2141C265.825 94.4881 264.637 92.8723 263.301 91.3667C262.633 90.6323 261.927 89.8978 261.185 89.2368C260.442 88.5758 259.589 87.9515 258.809 87.364C255.505 85.0137 252.164 83.3612 249.38 82.3697C246.671 81.3782 244.852 80.9375 244.852 80.9375C244.852 80.9375 245.223 82.4431 246.114 84.6832C246.485 85.8216 246.93 87.1436 247.524 88.5758C247.821 89.2735 248.155 90.008 248.489 90.7792C248.861 91.5136 249.158 92.3215 249.529 93.0927C250.271 94.635 251.199 96.2141 252.239 97.7197C253.204 99.2254 254.317 100.694 255.654 101.98C258.401 104.55 261.63 106.57 266.085 107.011C266.642 106.129 267.05 105.248 267.347 104.367C267.644 103.448 267.718 102.567 267.718 101.649C267.718 99.8496 267.31 98.0135 266.567 96.2876L266.642 96.2141Z" fill="url(#paint28_linear_340_3102)"/>
<path d="M272.73 37.2344C272.73 37.2344 271.987 39.1439 270.948 42.1552C269.908 45.1665 268.721 49.0958 267.644 53.2822C267.124 55.3753 266.753 57.4685 266.419 59.525C266.085 61.6182 265.936 63.6747 266.085 65.5842C266.196 66.539 266.271 67.4938 266.456 68.4119C266.642 69.3299 266.902 70.2113 267.273 71.0559C267.644 71.9005 268.127 72.7084 268.721 73.4796C269.277 74.2508 269.908 75.022 270.688 75.7197C272.767 74.8383 274.437 73.6265 275.736 72.0841C277.073 70.5418 277.927 68.7424 278.558 66.7594C278.855 65.7679 279.077 64.7029 279.263 63.6379C279.411 62.573 279.56 61.4346 279.523 60.3329C279.523 58.0928 279.3 55.816 278.929 53.5759C278.038 49.1692 276.59 44.9828 275.18 42.045C274.511 40.5761 273.88 39.3643 273.472 38.5197C273.027 37.7118 272.73 37.2344 272.73 37.2344Z" fill="url(#paint29_linear_340_3102)"/>
<path d="M259.44 68.4129C259.032 67.605 258.549 66.7971 257.881 66.0993C256.619 64.6672 255.134 63.3819 253.501 62.2435C251.83 61.1418 249.937 60.2604 248.081 59.526C247.153 59.1588 246.225 58.8283 245.334 58.5712C244.406 58.2774 243.478 58.0571 242.587 57.8735C240.805 57.4695 239.135 57.2125 237.724 57.0289C236.314 56.8452 235.163 56.7718 234.309 56.7351C233.455 56.6983 232.973 56.7351 232.973 56.7351C232.973 56.7351 233.158 57.0656 233.567 57.6899C233.938 58.2774 234.42 59.1588 235.126 60.1503C235.46 60.6644 235.831 61.1785 236.276 61.7661C236.499 62.0231 236.685 62.3536 236.945 62.6474C237.167 62.9412 237.353 63.235 237.576 63.5655C238.467 64.814 239.543 66.1361 240.731 67.4214C241.845 68.7434 243.07 70.0287 244.48 71.2038C244.814 71.4976 245.186 71.7913 245.557 72.0851C245.891 72.3789 246.262 72.636 246.633 72.9298C247.339 73.4806 248.118 73.9947 248.935 74.4354C250.531 75.3534 252.35 76.0512 254.206 76.4551C256.062 76.8591 258.104 76.9692 260.331 76.602C260.628 75.6472 260.814 74.6557 260.888 73.7376C260.888 72.8196 260.776 71.9015 260.554 71.0202C260.331 70.1388 259.997 69.2942 259.589 68.4863L259.44 68.4129Z" fill="url(#paint30_linear_340_3102)"/>
<path d="M256.657 46.4907C260.221 43.8467 261.891 40.1377 262.151 35.9513C262.263 33.8948 262.003 31.7282 261.557 29.5616C261.075 27.3949 260.295 25.3017 259.441 23.2085C258.55 21.1521 257.474 19.2792 256.472 17.5165C255.432 15.7538 254.319 14.2482 253.353 12.9629C252.425 11.6409 251.535 10.6494 250.903 9.95167C250.272 9.25394 249.938 8.88672 249.938 8.88672C249.938 8.88672 249.604 10.9432 249.27 13.9912C249.085 15.5335 248.899 17.3696 248.75 19.3159C248.676 20.2707 248.602 21.299 248.565 22.3272C248.528 23.3554 248.453 24.4204 248.453 25.4853C248.416 29.7084 248.602 34.0784 249.753 37.7507C250.272 39.6236 251.089 41.3128 252.24 42.745C253.316 44.2506 254.764 45.4992 256.657 46.454V46.4907Z" fill="url(#paint31_linear_340_3102)"/>
<path d="M241.991 39.1114C238.947 36.8713 234.901 35.5126 230.929 34.925C228.961 34.5945 226.994 34.4844 225.138 34.4844C223.319 34.4844 221.648 34.5578 220.201 34.668C217.305 34.9618 215.449 35.3657 215.449 35.3657C215.449 35.3657 215.709 35.6595 216.229 36.1736C216.711 36.6877 217.454 37.3855 218.345 38.2668C219.236 39.1481 220.312 40.1029 221.5 41.1312C222.688 42.1594 224.024 43.2244 225.472 44.2526C226.883 45.3175 228.442 46.2723 230.075 47.1537C231.671 48.035 233.379 48.7695 235.198 49.2836C238.761 50.3118 242.659 50.4587 246.78 48.696C246.891 46.6763 246.445 44.8402 245.629 43.2244C244.775 41.6453 243.513 40.2865 241.991 39.1481V39.1114Z" fill="url(#paint32_linear_340_3102)"/>
</g>
<defs>
<linearGradient id="paint0_linear_340_3102" x1="85.7673" y1="231.18" x2="85.7673" y2="244.627" gradientUnits="userSpaceOnUse">
<stop stop-color="#DA000E"/>
<stop offset="0.610577" stop-color="#B6000C"/>
<stop offset="1" stop-color="#740007"/>
</linearGradient>
<linearGradient id="paint1_linear_340_3102" x1="100.566" y1="201.465" x2="100.566" y2="228.95" gradientUnits="userSpaceOnUse">
<stop stop-color="#DA000E"/>
<stop offset="0.610577" stop-color="#B6000C"/>
<stop offset="1" stop-color="#740007"/>
</linearGradient>
<linearGradient id="paint2_linear_340_3102" x1="53.0083" y1="212.43" x2="53.0083" y2="226.562" gradientUnits="userSpaceOnUse">
<stop stop-color="#DA000E"/>
<stop offset="0.610577" stop-color="#B6000C"/>
<stop offset="1" stop-color="#740007"/>
</linearGradient>
<linearGradient id="paint3_linear_340_3102" x1="73.565" y1="183.391" x2="73.565" y2="214.58" gradientUnits="userSpaceOnUse">
<stop stop-color="#DA000E"/>
<stop offset="0.610577" stop-color="#B6000C"/>
<stop offset="1" stop-color="#740007"/>
</linearGradient>
<linearGradient id="paint4_linear_340_3102" x1="29.4927" y1="177.629" x2="29.4927" y2="202.248" gradientUnits="userSpaceOnUse">
<stop stop-color="#DA000E"/>
<stop offset="0.610577" stop-color="#B6000C"/>
<stop offset="1" stop-color="#740007"/>
</linearGradient>
<linearGradient id="paint5_linear_340_3102" x1="53.1475" y1="160.664" x2="53.1475" y2="194.339" gradientUnits="userSpaceOnUse">
<stop stop-color="#DA000E"/>
<stop offset="0.610577" stop-color="#B6000C"/>
<stop offset="1" stop-color="#740007"/>
</linearGradient>
<linearGradient id="paint6_linear_340_3102" x1="16.1693" y1="142.559" x2="16.1693" y2="170.931" gradientUnits="userSpaceOnUse">
<stop stop-color="#DA000E"/>
<stop offset="0.610577" stop-color="#B6000C"/>
<stop offset="1" stop-color="#740007"/>
</linearGradient>
<linearGradient id="paint7_linear_340_3102" x1="41.787" y1="132.934" x2="41.787" y2="166.865" gradientUnits="userSpaceOnUse">
<stop stop-color="#DA000E"/>
<stop offset="0.610577" stop-color="#B6000C"/>
<stop offset="1" stop-color="#740007"/>
</linearGradient>
<linearGradient id="paint8_linear_340_3102" x1="10.7261" y1="105.391" x2="10.7261" y2="138.647" gradientUnits="userSpaceOnUse">
<stop stop-color="#DA000E"/>
<stop offset="0.610577" stop-color="#B6000C"/>
<stop offset="1" stop-color="#740007"/>
</linearGradient>
<linearGradient id="paint9_linear_340_3102" x1="36.56" y1="105.242" x2="36.56" y2="136.236" gradientUnits="userSpaceOnUse">
<stop stop-color="#DA000E"/>
<stop offset="0.610577" stop-color="#B6000C"/>
<stop offset="1" stop-color="#740007"/>
</linearGradient>
<linearGradient id="paint10_linear_340_3102" x1="12.8103" y1="68.5977" x2="12.8103" y2="105.688" gradientUnits="userSpaceOnUse">
<stop stop-color="#DA000E"/>
<stop offset="0.610577" stop-color="#B6000C"/>
<stop offset="1" stop-color="#740007"/>
</linearGradient>
<linearGradient id="paint11_linear_340_3102" x1="39.1453" y1="78.8789" x2="39.1453" y2="104.915" gradientUnits="userSpaceOnUse">
<stop stop-color="#DA000E"/>
<stop offset="0.610577" stop-color="#B6000C"/>
<stop offset="1" stop-color="#740007"/>
</linearGradient>
<linearGradient id="paint12_linear_340_3102" x1="22.7087" y1="35.1836" x2="22.7087" y2="73.6689" gradientUnits="userSpaceOnUse">
<stop stop-color="#DA000E"/>
<stop offset="0.610577" stop-color="#B6000C"/>
<stop offset="1" stop-color="#740007"/>
</linearGradient>
<linearGradient id="paint13_linear_340_3102" x1="48.6852" y1="54.6055" x2="48.6852" y2="74.6961" gradientUnits="userSpaceOnUse">
<stop stop-color="#DA000E"/>
<stop offset="0.610577" stop-color="#B6000C"/>
<stop offset="1" stop-color="#740007"/>
</linearGradient>
<linearGradient id="paint14_linear_340_3102" x1="40.191" y1="6.82812" x2="40.191" y2="44.4688" gradientUnits="userSpaceOnUse">
<stop stop-color="#DA000E"/>
<stop offset="0.610577" stop-color="#B6000C"/>
<stop offset="1" stop-color="#740007"/>
</linearGradient>
<linearGradient id="paint15_linear_340_3102" x1="64.3648" y1="32.4219" x2="64.3648" y2="48.0025" gradientUnits="userSpaceOnUse">
<stop stop-color="#DA000E"/>
<stop offset="0.610577" stop-color="#B6000C"/>
<stop offset="1" stop-color="#740007"/>
</linearGradient>
<linearGradient id="paint16_linear_340_3102" x1="147.78" y1="0.113281" x2="147.78" y2="266.431" gradientUnits="userSpaceOnUse">
<stop stop-color="#DA000E"/>
<stop offset="0.610577" stop-color="#B6000C"/>
<stop offset="1" stop-color="#740007"/>
</linearGradient>
<linearGradient id="paint17_linear_340_3102" x1="209.752" y1="233.234" x2="209.752" y2="246.682" gradientUnits="userSpaceOnUse">
<stop stop-color="#DA000E"/>
<stop offset="0.610577" stop-color="#B6000C"/>
<stop offset="1" stop-color="#740007"/>
</linearGradient>
<linearGradient id="paint18_linear_340_3102" x1="194.956" y1="203.48" x2="194.956" y2="230.975" gradientUnits="userSpaceOnUse">
<stop stop-color="#DA000E"/>
<stop offset="0.610577" stop-color="#B6000C"/>
<stop offset="1" stop-color="#740007"/>
</linearGradient>
<linearGradient id="paint19_linear_340_3102" x1="242.512" y1="214.445" x2="242.512" y2="228.584" gradientUnits="userSpaceOnUse">
<stop stop-color="#DA000E"/>
<stop offset="0.610577" stop-color="#B6000C"/>
<stop offset="1" stop-color="#740007"/>
</linearGradient>
<linearGradient id="paint20_linear_340_3102" x1="221.96" y1="185.449" x2="221.96" y2="216.643" gradientUnits="userSpaceOnUse">
<stop stop-color="#DA000E"/>
<stop offset="0.610577" stop-color="#B6000C"/>
<stop offset="1" stop-color="#740007"/>
</linearGradient>
<linearGradient id="paint21_linear_340_3102" x1="266.011" y1="179.688" x2="266.011" y2="204.286" gradientUnits="userSpaceOnUse">
<stop stop-color="#DA000E"/>
<stop offset="0.610577" stop-color="#B6000C"/>
<stop offset="1" stop-color="#740007"/>
</linearGradient>
<linearGradient id="paint22_linear_340_3102" x1="242.426" y1="162.793" x2="242.426" y2="196.431" gradientUnits="userSpaceOnUse">
<stop stop-color="#DA000E"/>
<stop offset="0.610577" stop-color="#B6000C"/>
<stop offset="1" stop-color="#740007"/>
</linearGradient>
<linearGradient id="paint23_linear_340_3102" x1="279.388" y1="144.574" x2="279.388" y2="172.983" gradientUnits="userSpaceOnUse">
<stop stop-color="#DA000E"/>
<stop offset="0.610577" stop-color="#B6000C"/>
<stop offset="1" stop-color="#740007"/>
</linearGradient>
<linearGradient id="paint24_linear_340_3102" x1="253.823" y1="135.031" x2="253.823" y2="168.963" gradientUnits="userSpaceOnUse">
<stop stop-color="#DA000E"/>
<stop offset="0.610577" stop-color="#B6000C"/>
<stop offset="1" stop-color="#740007"/>
</linearGradient>
<linearGradient id="paint25_linear_340_3102" x1="284.811" y1="107.445" x2="284.811" y2="140.702" gradientUnits="userSpaceOnUse">
<stop stop-color="#DA000E"/>
<stop offset="0.610577" stop-color="#B6000C"/>
<stop offset="1" stop-color="#740007"/>
</linearGradient>
<linearGradient id="paint26_linear_340_3102" x1="258.863" y1="107.375" x2="258.863" y2="138.369" gradientUnits="userSpaceOnUse">
<stop stop-color="#DA000E"/>
<stop offset="0.610577" stop-color="#B6000C"/>
<stop offset="1" stop-color="#740007"/>
</linearGradient>
<linearGradient id="paint27_linear_340_3102" x1="282.674" y1="70.6523" x2="282.674" y2="107.816" gradientUnits="userSpaceOnUse">
<stop stop-color="#DA000E"/>
<stop offset="0.610577" stop-color="#B6000C"/>
<stop offset="1" stop-color="#740007"/>
</linearGradient>
<linearGradient id="paint28_linear_340_3102" x1="256.285" y1="80.9375" x2="256.285" y2="107.011" gradientUnits="userSpaceOnUse">
<stop stop-color="#DA000E"/>
<stop offset="0.610577" stop-color="#B6000C"/>
<stop offset="1" stop-color="#740007"/>
</linearGradient>
<linearGradient id="paint29_linear_340_3102" x1="272.778" y1="37.2344" x2="272.778" y2="75.7197" gradientUnits="userSpaceOnUse">
<stop stop-color="#DA000E"/>
<stop offset="0.610577" stop-color="#B6000C"/>
<stop offset="1" stop-color="#740007"/>
</linearGradient>
<linearGradient id="paint30_linear_340_3102" x1="246.93" y1="56.7188" x2="246.93" y2="76.8257" gradientUnits="userSpaceOnUse">
<stop stop-color="#DA000E"/>
<stop offset="0.610577" stop-color="#B6000C"/>
<stop offset="1" stop-color="#740007"/>
</linearGradient>
<linearGradient id="paint31_linear_340_3102" x1="255.313" y1="8.88672" x2="255.313" y2="46.4907" gradientUnits="userSpaceOnUse">
<stop stop-color="#DA000E"/>
<stop offset="0.610577" stop-color="#B6000C"/>
<stop offset="1" stop-color="#740007"/>
</linearGradient>
<linearGradient id="paint32_linear_340_3102" x1="231.123" y1="34.4844" x2="231.123" y2="50.043" gradientUnits="userSpaceOnUse">
<stop stop-color="#DA000E"/>
<stop offset="0.610577" stop-color="#B6000C"/>
<stop offset="1" stop-color="#740007"/>
</linearGradient>
<clipPath id="clip0_340_3102">
<rect width="292" height="266.386" fill="white"/>
</clipPath>
</defs>
</svg>
