<svg width="512" height="513" viewBox="0 0 512 513" fill="none" xmlns="http://www.w3.org/2000/svg">
<g clip-path="url(#clip0_9263_972)">
<path d="M316.74 250.27H195.26C189.185 250.27 184.26 245.345 184.26 239.27C184.26 233.195 189.185 228.27 195.26 228.27H316.74C322.815 228.27 327.74 233.195 327.74 239.27C327.74 245.345 322.815 250.27 316.74 250.27Z" fill="#DA000E"/>
<path d="M316.74 189.273H195.26C189.185 189.273 184.26 184.348 184.26 178.273C184.26 172.198 189.185 167.273 195.26 167.273H316.74C322.815 167.273 327.74 172.198 327.74 178.273C327.74 184.348 322.815 189.273 316.74 189.273Z" fill="#DA000E"/>
<path d="M509.885 192.85C509.891 189.424 508.214 186.081 505.466 184.036L415.039 116.519V93.0395C415.039 86.9645 410.114 82.0396 404.039 82.0396H368.859L262.581 2.68587C258.678 -0.228122 253.323 -0.229122 249.419 2.68587L143.139 82.0396H107.959C101.884 82.0396 96.9593 86.9645 96.9593 93.0395V116.519L6.53363 184.036C3.78564 186.081 2.10865 189.424 2.11465 192.85V501.498C2.01665 507.401 7.20863 512.604 13.1146 512.498H498.885C504.792 512.604 509.982 507.401 509.885 501.498V192.85ZM24.1146 215.157L162.995 321.734L24.1146 473.222V215.157ZM180.515 335.18L228.698 372.154C236.737 378.323 246.367 381.406 256 381.406C265.631 381.406 275.265 378.322 283.302 372.154L331.484 335.18L473.877 490.498H38.1225L180.515 335.18ZM349.004 321.734L487.885 215.157V473.222L349.004 321.734ZM480.66 192.97L415.039 243.327V143.974L480.66 192.97ZM256 25.2278L332.087 82.0396H179.911L256 25.2278ZM393.039 104.039V260.21L269.908 354.701C261.718 360.985 250.281 360.985 242.092 354.701L118.959 260.21V104.039H393.039ZM96.9593 243.327L31.3395 192.97L96.9603 143.974L96.9593 243.327Z" fill="black"/>
</g>
<defs>
<clipPath id="clip0_9263_972">
<rect width="512" height="512" fill="white" transform="translate(0 0.5)"/>
</clipPath>
</defs>
</svg>
