<svg width="15" height="20" viewBox="0 0 15 20" fill="none" xmlns="http://www.w3.org/2000/svg">
<path fill-rule="evenodd" clip-rule="evenodd" d="M1.70714 0.982422H6.12352C5.96338 4.39163 6.16987 5.07432 4.12603 8.60574C2.37296 11.5556 1.46272 12.7861 1.64392 13.157C1.95155 13.8059 3.43913 13.2328 3.9069 12.3984C4.37466 11.7242 4.35781 11.2396 4.95621 10.7802C5.10512 10.7418 5.26085 10.7382 5.41138 10.7697C5.5619 10.8011 5.70319 10.8667 5.82432 10.9614C7.29504 12.036 5.51247 16.6083 6.34265 18.1633C6.38339 18.2366 6.43887 18.3007 6.5056 18.3514C6.57233 18.4022 6.64885 18.4386 6.73035 18.4583C7.19811 18.4583 7.27397 18.197 7.41725 17.3542C7.61952 16.1953 7.79652 13.8523 8.16314 13.098C8.43706 12.6344 8.75733 13.1443 8.81633 13.3466C9.23774 14.9817 9.06918 18.5089 10.2281 18.4667C10.4093 18.4667 10.5778 18.2855 10.6031 17.9526C10.7295 16.6884 10.266 14.0293 10.207 13.0853C10.1859 12.6639 10.5146 12.6133 10.6663 12.7524C11.2647 13.4941 11.408 13.7807 11.9895 14.5308C12.5711 15.2809 12.9377 16.2164 13.612 15.9931C14.3916 15.7655 12.2087 12.6218 11.762 11.564C11.7198 11.4629 11.762 11.3786 11.8926 11.4503C12.9588 12.0276 13.7637 13.511 14.3031 13.2075C14.7709 12.7861 12.3815 10.3251 11.8547 9.47384C11.3743 8.70687 10.4008 5.91714 10.3713 4.83833C10.3572 3.55662 10.412 2.27508 10.5357 0.999278H13.5319C13.8535 1.00039 14.1615 1.12861 14.3889 1.35598C14.6162 1.58334 14.7445 1.8914 14.7456 2.21294V17.8051C14.7456 18.127 14.6177 18.4357 14.3901 18.6633C14.1625 18.8909 13.8538 19.0188 13.5319 19.0188H1.70714C1.38525 19.0188 1.07655 18.8909 0.848947 18.6633C0.621342 18.4357 0.493474 18.127 0.493474 17.8051V2.21294C0.491805 2.0523 0.521935 1.89292 0.582128 1.74397C0.642321 1.59502 0.731387 1.45946 0.844197 1.34508C0.957007 1.23071 1.09133 1.13978 1.23943 1.07754C1.38754 1.01529 1.54649 0.982969 1.70714 0.982422Z" fill="#1C1C1C"/>
<path fill-rule="evenodd" clip-rule="evenodd" d="M6.12757 17.3416C5.94637 18.1254 5.84944 18.3656 5.39853 18.3403C5.31824 18.3161 5.24383 18.2755 5.18 18.2211C5.11617 18.1667 5.06431 18.0997 5.02769 18.0243C4.28601 16.4313 6.65012 11.9054 4.91391 10.8139L4.96027 10.7802C5.10917 10.7418 5.26491 10.7382 5.41544 10.7697C5.56596 10.8011 5.70725 10.8667 5.82837 10.9614C7.0926 11.8843 5.9548 15.3862 6.136 17.3416H6.12757ZM1.62691 12.9631C1.71541 12.4321 2.60037 11.1763 4.12587 8.60574C5.97165 5.86235 6.09386 4.81304 6.12336 0.982422H5.57553C5.32268 4.17671 5.31425 5.56315 3.31677 8.36132C1.42042 11.2395 0.446962 12.39 0.602883 12.7735C0.758805 13.157 1.16336 13.1106 1.62691 12.9631ZM12.6974 12.0529C13.1525 12.7313 13.4559 13.3171 13.2452 13.4983C13.155 13.5193 13.0609 13.5164 12.9722 13.4898C12.8834 13.4631 12.8032 13.4138 12.7395 13.3466C12.3181 12.6344 11.9262 11.9475 11.7618 11.5514C11.7197 11.4503 11.7618 11.366 11.8925 11.4376C12.1856 11.6064 12.456 11.8117 12.6974 12.0487V12.0529ZM12.4319 15.1966C12.2886 14.9817 12.1453 14.7457 11.9894 14.5223C11.4078 13.7722 11.2646 13.4857 10.6662 12.744C10.5145 12.6049 10.1858 12.6597 10.2068 13.0769C10.2068 13.2455 10.2405 13.4688 10.27 13.7301C10.4681 14.0166 10.6367 14.3243 10.8642 14.6909C11.3657 15.5042 11.9135 16.6757 12.4066 16.2375C12.6173 16.0731 12.5878 15.6854 12.4361 15.1924L12.4319 15.1966ZM9.482 17.6239C9.46906 17.8208 9.4423 18.0165 9.40193 18.2097C9.38262 18.2859 9.34105 18.3547 9.28251 18.4072C9.22397 18.4598 9.15112 18.4937 9.07323 18.5047C7.99864 18.5552 8.23041 15.7866 7.88907 14.0967C7.94173 13.7526 8.03509 13.4159 8.1672 13.0938C8.44112 12.6302 8.76139 13.1401 8.82039 13.3424C9.11959 14.4676 9.1238 16.4861 9.47357 17.6281L9.482 17.6239Z" fill="#1C1C1C"/>
</svg>
