<?xml version="1.0" encoding="iso-8859-1"?>
<!-- Generator: Adobe Illustrator 26.5.3, SVG Export Plug-In . SVG Version: 6.00 Build 0)  -->
<svg version="1.1" id="Capa_1" xmlns="http://www.w3.org/2000/svg" xmlns:xlink="http://www.w3.org/1999/xlink" x="0px" y="0px"
	 viewBox="0 0 512.073 512.073" style="enable-background:new 0 0 512.073 512.073;" xml:space="preserve">
<g>
	<g>
		<g>
			<path d="M256.036,386.036c-71.682,0-130-58.318-130-130s58.318-130,130-130s130,58.318,130,130S327.719,386.036,256.036,386.036z
				 M256.036,148.036c-59.551,0-108,48.449-108,108s48.449,108,108,108s108-48.449,108-108S315.588,148.036,256.036,148.036z"/>
		</g>
	</g>
	<g>
		<g>
			<path d="M292.555,453.429h-73.036c-6.075,0-11-4.925-11-11v-10.513c-15.153-4.078-29.64-10.08-43.245-17.917l-7.436,7.437
				c-4.296,4.296-11.261,4.296-15.557,0l-51.644-51.644c-4.296-4.296-4.296-11.261,0-15.556l7.437-7.438
				c-7.837-13.605-13.839-28.091-17.917-43.245H69.643c-6.075,0-11-4.925-11-11v-73.036c0-6.075,4.925-11,11-11h10.513
				c4.078-15.153,10.08-29.64,17.917-43.245l-7.437-7.438c-4.296-4.295-4.295-11.26,0-15.556l51.644-51.644
				c4.296-4.295,11.26-4.296,15.557,0l7.436,7.437c13.605-7.837,28.092-13.839,43.245-17.917V69.643c0-6.075,4.925-11,11-11h73.036
				c6.075,0,11,4.925,11,11v10.513c15.153,4.078,29.64,10.08,43.245,17.917l7.437-7.437c4.295-4.295,11.259-4.296,15.556,0
				l51.644,51.644c4.295,4.296,4.295,11.261,0,15.556L414,165.273c7.837,13.605,13.839,28.091,17.917,43.245h10.513
				c6.075,0,11,4.925,11,11v73.036c0,6.075-4.925,11-11,11h-10.513c-4.078,15.153-10.08,29.64-17.917,43.245l7.437,7.438
				c4.295,4.295,4.295,11.26,0,15.556l-51.644,51.644c-4.296,4.296-11.261,4.296-15.556,0l-7.437-7.437
				c-13.605,7.837-28.092,13.839-43.245,17.917v10.513C303.555,448.504,298.63,453.429,292.555,453.429z M230.518,431.429h51.036
				v-8.156c0-5.175,3.607-9.65,8.664-10.749c18.642-4.052,36.238-11.342,52.299-21.667c4.352-2.798,10.066-2.185,13.726,1.475
				l5.771,5.771l36.088-36.087l-5.771-5.771c-3.659-3.659-4.273-9.374-1.475-13.727c10.326-16.061,17.615-33.657,21.667-52.298
				c1.099-5.057,5.574-8.664,10.749-8.664h8.156v-51.036h-8.156c-5.175,0-9.65-3.607-10.749-8.664
				c-4.052-18.642-11.342-36.237-21.667-52.298c-2.798-4.353-2.185-10.068,1.475-13.727l5.771-5.771l-36.088-36.087l-5.771,5.771
				c-3.658,3.66-9.374,4.272-13.726,1.475c-16.062-10.325-33.658-17.615-52.299-21.667c-5.057-1.099-8.664-5.574-8.664-10.749
				v-8.156h-51.036v8.156c0,5.175-3.607,9.65-8.664,10.749c-18.642,4.052-36.238,11.342-52.299,21.667
				c-4.352,2.798-10.067,2.185-13.727-1.475l-5.77-5.771l-36.088,36.087l5.771,5.771c3.659,3.659,4.273,9.374,1.475,13.727
				c-10.326,16.061-17.615,33.657-21.667,52.298c-1.099,5.057-5.574,8.664-10.749,8.664h-8.156v51.036H88.8
				c5.175,0,9.65,3.607,10.749,8.664c4.052,18.642,11.342,36.237,21.667,52.298c2.798,4.353,2.185,10.068-1.475,13.727l-5.771,5.771
				l36.088,36.087l5.77-5.771c3.66-3.659,9.375-4.271,13.727-1.475c16.062,10.325,33.658,17.615,52.299,21.667
				c5.057,1.099,8.664,5.574,8.664,10.749V431.429z"/>
		</g>
		<g>
			<path style="fill:#33CCCC;" d="M297.669,288.197c2.125,2.007,4.84,3.002,7.55,3.002c2.921,0,5.836-1.157,8-3.448l22.815-24.163
				c4.002-4.239,4.002-10.865,0-15.104l-22.815-24.163c-4.171-4.417-11.132-4.617-15.55-0.446
				c-4.417,4.171-4.617,11.133-0.446,15.55l15.685,16.611l-15.685,16.611C293.052,277.064,293.252,284.026,297.669,288.197z"/>
			<path style="fill:#33CCCC;" d="M214.404,223.875c-4.417-4.171-11.379-3.972-15.55,0.446l-22.815,24.163
				c-4.002,4.239-4.002,10.865,0,15.104l22.815,24.163c2.164,2.292,5.079,3.448,8,3.448c2.709,0,5.424-0.995,7.55-3.002
				c4.417-4.171,4.617-11.133,0.446-15.55l-15.685-16.611l15.685-16.611C219.021,235.007,218.821,228.046,214.404,223.875z"/>
			<path style="fill:#33CCCC;" d="M250.403,225.909l-10.369,56.266c-1.101,5.975,2.85,11.71,8.824,12.812
				c0.674,0.124,1.345,0.184,2.006,0.184c5.203,0,9.828-3.708,10.805-9.008l10.369-56.266c1.101-5.975-2.85-11.71-8.824-12.812
				C257.242,215.984,251.504,219.935,250.403,225.909z"/>
			<path style="fill:#33CCCC;" d="M24.862,292.066c-6.94-44.293-1.176-88.665,16.653-129.415l1.434,5.531
				c1.285,4.955,5.749,8.241,10.64,8.241c0.914,0,1.844-0.115,2.769-0.354c5.881-1.525,9.412-7.529,7.887-13.409l-8.704-33.562
				c-0.732-2.824-2.557-5.242-5.072-6.721c-2.514-1.479-5.513-1.899-8.338-1.166L8.57,129.916c-5.88,1.525-9.411,7.528-7.886,13.409
				c1.524,5.88,7.529,9.409,13.409,7.886l9.567-2.482C2.346,194.708-4.76,245.134,3.127,295.472
				c8.357,53.342,33.885,103.629,71.881,141.598c2.148,2.146,4.961,3.219,7.775,3.219c2.816,0,5.633-1.075,7.781-3.225
				c4.294-4.297,4.292-11.262-0.005-15.556C55.835,386.808,32.503,340.839,24.862,292.066z"/>
			<path style="fill:#33CCCC;" d="M421.509,421.513c-34.7,34.724-80.669,58.056-129.442,65.697
				c-44.292,6.939-88.665,1.176-129.416-16.653l5.531-1.434c5.881-1.525,9.412-7.529,7.887-13.409
				c-1.526-5.881-7.534-9.408-13.409-7.887l-33.562,8.704c-2.824,0.732-5.242,2.557-6.721,5.072
				c-1.479,2.515-1.898,5.514-1.166,8.338l8.705,33.562c1.285,4.955,5.749,8.241,10.64,8.241c0.914,0,1.844-0.115,2.77-0.355
				c5.88-1.525,9.411-7.528,7.886-13.409l-2.481-9.565c33.796,15.667,69.992,23.659,106.794,23.659
				c13.264,0,26.611-1.038,39.947-3.127c53.342-8.357,103.629-33.885,141.598-71.881c4.294-4.297,4.292-11.262-0.005-15.556
				C432.767,417.214,425.803,417.216,421.509,421.513z"/>
			<path style="fill:#33CCCC;" d="M497.979,360.86l-9.567,2.482c21.315-45.978,28.421-96.404,20.534-146.742
				c-8.357-53.342-33.885-103.629-71.881-141.598c-4.297-4.295-11.262-4.292-15.556,0.005c-4.294,4.297-4.292,11.262,0.005,15.556
				c34.724,34.7,58.056,80.669,65.697,129.442c6.94,44.293,1.176,88.665-16.653,129.415l-1.434-5.531
				c-1.525-5.881-7.532-9.409-13.409-7.887c-5.881,1.525-9.412,7.529-7.887,13.409l8.704,33.562
				c0.732,2.824,2.557,5.242,5.072,6.721c1.705,1.002,3.632,1.518,5.577,1.518c0.924,0,1.852-0.116,2.761-0.353l33.562-8.705
				c5.88-1.525,9.411-7.528,7.886-13.409C509.864,362.865,503.859,359.336,497.979,360.86z"/>
			<path style="fill:#33CCCC;" d="M82.784,93.783c2.816,0,5.633-1.075,7.781-3.225c34.7-34.724,80.669-58.056,129.442-65.697
				c44.291-6.939,88.665-1.176,129.416,16.653l-5.531,1.435c-5.881,1.525-9.412,7.529-7.887,13.409
				c1.285,4.955,5.749,8.241,10.64,8.241c0.914,0,1.844-0.115,2.769-0.354l33.562-8.704c2.824-0.732,5.242-2.557,6.721-5.072
				c1.479-2.515,1.898-5.514,1.166-8.338l-8.705-33.562c-1.525-5.88-7.531-9.412-13.409-7.886c-5.88,1.525-9.411,7.528-7.886,13.409
				l2.482,9.567C317.364,2.345,266.939-4.761,216.6,3.126c-53.342,8.357-103.629,33.885-141.598,71.881
				c-4.294,4.297-4.292,11.262,0.005,15.556C77.156,92.71,79.97,93.783,82.784,93.783z"/>
		</g>
	</g>
</g>
<g>
</g>
<g>
</g>
<g>
</g>
<g>
</g>
<g>
</g>
<g>
</g>
<g>
</g>
<g>
</g>
<g>
</g>
<g>
</g>
<g>
</g>
<g>
</g>
<g>
</g>
<g>
</g>
<g>
</g>
</svg>
