<svg width="512" height="513" viewBox="0 0 512 513" fill="none" xmlns="http://www.w3.org/2000/svg">
<g clip-path="url(#clip0_9263_925)">
<path d="M190.148 164.795H238.581C261.97 164.795 280.999 145.766 280.999 122.377V42.9201C280.999 30.5751 275.638 18.8691 266.291 10.8041C256.944 2.73911 244.576 -0.849887 232.367 0.959113C232.298 0.969113 232.228 0.980113 232.159 0.992113L182.402 9.33511C145.303 15.5551 111.488 34.7951 87.186 63.5091C62.884 92.2241 49.5 128.754 49.5 166.371V346.62C49.5 384.237 62.883 420.767 87.184 449.481C111.485 478.195 145.299 497.435 182.398 503.655L232.16 511.999C232.229 512.01 232.298 512.021 232.368 512.032C234.445 512.339 236.525 512.491 238.595 512.491C248.698 512.491 258.535 508.881 266.292 502.188C275.639 494.123 281 482.417 281 470.072V390.615C281 367.226 261.971 348.197 238.582 348.197H190.149C182.449 348.197 176.184 341.933 176.184 334.233V178.76C176.183 171.06 182.448 164.795 190.148 164.795ZM235.684 22.7081C241.531 21.8691 247.443 23.5991 251.919 27.4601C256.418 31.3421 258.999 36.9771 258.999 42.9191V122.376C258.999 133.635 249.839 142.794 238.581 142.794H205.796V27.7191L235.684 22.7081ZM258.999 390.613V470.07C258.999 476.013 256.418 481.647 251.919 485.529C247.444 489.39 241.531 491.118 235.684 490.281L205.796 485.27V370.195H238.581C249.839 370.195 258.999 379.355 258.999 390.613ZM183.796 369.622V481.557C152.704 475.81 124.43 459.437 103.977 435.269C83.034 410.522 71.5 379.039 71.5 346.62V166.371C71.5 133.952 83.035 102.469 103.979 77.7221C124.432 53.5561 152.705 37.1821 183.796 31.4341V143.368C166.986 146.378 154.183 161.097 154.183 178.759V334.23C154.183 351.894 166.986 366.612 183.796 369.622Z" fill="black"/>
<path d="M298.715 219.112C294.419 223.408 294.42 230.373 298.715 234.668C304.545 240.498 307.756 248.249 307.756 256.495C307.756 264.74 304.545 272.492 298.715 278.322C294.419 282.618 294.419 289.582 298.715 293.878C300.863 296.026 303.678 297.1 306.493 297.1C309.308 297.1 312.123 296.026 314.271 293.878C324.257 283.893 329.756 270.617 329.756 256.495C329.756 242.373 324.257 229.097 314.271 219.112C309.976 214.817 303.011 214.816 298.715 219.112Z" fill="#DA000E"/>
<path d="M361.661 171.722C357.364 167.426 350.4 167.426 346.104 171.722C341.809 176.018 341.809 182.983 346.104 187.278C364.592 205.767 374.774 230.348 374.774 256.495C374.774 282.642 364.592 307.223 346.104 325.712C341.809 330.008 341.809 336.972 346.104 341.268C348.252 343.416 351.067 344.49 353.882 344.49C356.697 344.49 359.512 343.416 361.66 341.268C384.304 318.624 396.774 288.518 396.774 256.495C396.774 224.472 384.305 194.366 361.661 171.722Z" fill="#DA000E"/>
<path d="M408.129 125.256C403.833 120.961 396.868 120.961 392.572 125.256C388.277 129.552 388.277 136.517 392.572 140.812C423.472 171.712 440.49 212.796 440.49 256.496C440.49 300.196 423.472 341.279 392.572 372.18C388.277 376.476 388.277 383.44 392.572 387.736C394.72 389.884 397.535 390.958 400.35 390.958C403.165 390.958 405.98 389.884 408.128 387.736C443.183 352.68 462.489 306.072 462.489 256.496C462.489 206.92 443.184 160.312 408.129 125.256Z" fill="#DA000E"/>
</g>
<defs>
<clipPath id="clip0_9263_925">
<rect width="511.99" height="511.99" fill="white" transform="translate(0 0.5)"/>
</clipPath>
</defs>
</svg>
