<svg width="512" height="513" viewBox="0 0 512 513" fill="none" xmlns="http://www.w3.org/2000/svg">
<g clip-path="url(#clip0_9263_1065)">
<path d="M387.227 423.636C366.998 416.15 339.453 410.654 307.572 407.741C301.52 407.192 296.17 411.645 295.616 417.694C295.063 423.744 299.52 429.097 305.57 429.649C335.125 432.349 361.413 437.542 379.592 444.268C398.679 451.331 402.58 457.667 402.58 458.977C402.58 460.8 395.814 469.99 364.56 478.423C335.705 486.21 297.151 490.498 256 490.498C214.849 490.498 176.294 486.21 147.439 478.424C116.185 469.991 109.419 460.801 109.419 458.978C109.419 457.658 113.359 451.278 132.637 444.184C150.978 437.435 177.468 432.247 207.225 429.577C213.276 429.034 217.741 423.689 217.198 417.638C216.655 411.587 211.31 407.125 205.259 407.665C173.173 410.544 145.433 416.032 125.039 423.537C100.076 432.723 87.418 444.647 87.418 458.978C87.418 476.255 105.683 489.944 141.707 499.664C172.379 507.94 212.969 512.498 256 512.498C299.031 512.498 339.621 507.94 370.292 499.664C406.315 489.944 424.581 476.255 424.581 458.978C424.581 444.698 412.013 432.808 387.227 423.636Z" fill="#DA000E"/>
<path d="M256 0.5C163.107 0.5 87.5322 76.074 87.5322 168.968C87.5322 219.196 106.158 276.54 142.893 339.406C172.043 389.292 205.92 431.354 229.206 457.854C235.978 465.561 245.744 469.981 255.999 469.981C266.254 469.981 276.02 465.561 282.792 457.854C306.078 431.354 339.955 389.292 369.105 339.406C405.84 276.54 424.466 219.196 424.466 168.968C424.468 76.074 348.893 0.5 256 0.5ZM350.112 328.306C320.355 379.23 284.808 422.231 266.267 443.331C263.633 446.329 259.987 447.98 256 447.98C252.013 447.98 248.368 446.329 245.733 443.331C227.192 422.231 191.645 379.23 161.888 328.306C127.147 268.852 109.532 215.243 109.532 168.967C109.532 88.205 175.238 22.5 256 22.5C336.762 22.5 402.467 88.205 402.467 168.968C402.468 215.243 384.852 268.853 350.112 328.306Z" fill="black"/>
<path d="M256 73.9219C202.332 73.9219 158.67 117.584 158.67 171.251C158.67 224.918 202.332 268.58 256 268.58C309.667 268.58 353.329 224.918 353.329 171.251C353.329 117.584 309.668 73.9219 256 73.9219ZM256 246.58C214.463 246.58 180.67 212.788 180.67 171.251C180.67 129.714 214.463 95.9219 256 95.9219C297.537 95.9219 331.329 129.714 331.329 171.251C331.329 212.788 297.537 246.58 256 246.58Z" fill="black"/>
</g>
<defs>
<clipPath id="clip0_9263_1065">
<rect width="512" height="512" fill="white" transform="translate(0 0.5)"/>
</clipPath>
</defs>
</svg>
