<svg width="22" height="23" viewBox="0 0 22 23" fill="none" xmlns="http://www.w3.org/2000/svg">
<g clip-path="url(#clip0_2240_8061)">
<path fill-rule="evenodd" clip-rule="evenodd" d="M12.178 1.50603C12.178 0.855117 11.6503 0.327454 10.9994 0.327454C10.3485 0.327454 9.82086 0.855117 9.82086 1.50603V3.53608C9.82086 4.18698 10.3485 4.71465 10.9994 4.71465C11.6503 4.71465 12.178 4.18698 12.178 3.53608V1.50603ZM11.8556 5.96864C11.5844 5.49889 10.9837 5.33793 10.514 5.60914C10.0742 5.86307 9.90505 6.40576 10.1078 6.85943L0.341047 17.3065C0.0458369 17.6222 -0.00820495 18.094 0.207933 18.4683L1.14531 20.0919C1.36145 20.4662 1.79695 20.6552 2.21801 20.5575L4.69331 19.9828L5.13491 20.7476L5.13717 20.7516C5.5608 21.4776 6.25548 22.0056 7.06843 22.2194C7.88138 22.4333 8.74598 22.3154 9.47202 21.8918C10.1981 21.4681 10.7261 20.7736 10.94 19.9605C11.0647 19.4862 11.0766 18.9945 10.9807 18.5228L16.1491 17.3227C16.4412 17.7231 16.9942 17.8468 17.4331 17.5935C17.9028 17.3222 18.0637 16.7216 17.7927 16.2518L17.506 15.7555C17.4906 15.7252 17.4737 15.6959 17.4554 15.6677L12.1944 6.55546C12.1791 6.52552 12.1622 6.49621 12.1437 6.46766L11.8556 5.96864ZM4.91392 17.915C4.94312 17.9068 4.97252 17.8999 5.00203 17.8945L15.1168 15.5459L11.1307 8.64164L2.27292 18.1164L2.48258 18.4796L4.91392 17.915ZM6.83476 19.7633L6.69334 19.5183L9.0654 18.9675C9.09094 19.1305 9.08305 19.2983 9.04029 19.4608C8.95898 19.7699 8.75819 20.034 8.48212 20.1953C8.20603 20.3563 7.87727 20.4011 7.56814 20.3197C7.25966 20.2386 6.99594 20.0384 6.83476 19.7633ZM17.5994 11.3148C17.5994 10.6639 18.1271 10.1362 18.778 10.1362H20.8081C21.459 10.1362 21.9867 10.6639 21.9867 11.3148C21.9867 11.9657 21.459 12.4934 20.8081 12.4934H18.778C18.1271 12.4934 17.5994 11.9657 17.5994 11.3148ZM1.19224 10.1362C0.541337 10.1362 0.0136719 10.6639 0.0136719 11.3148C0.0136719 11.9657 0.541336 12.4934 1.19224 12.4934H3.22231C3.87321 12.4934 4.40088 11.9657 4.40088 11.3148C4.40088 10.6639 3.87321 10.1362 3.22231 10.1362H1.19224ZM3.22938 3.54561C3.68964 3.08535 4.43588 3.08535 4.89613 3.54561L6.3316 4.98107C6.79186 5.44135 6.79186 6.18757 6.3316 6.64783C5.87135 7.1081 5.12511 7.1081 4.66485 6.64783L3.22938 5.21236C2.76913 4.7521 2.76913 4.00586 3.22938 3.54561ZM18.7688 5.21217C19.2291 4.75191 19.2291 4.00567 18.7688 3.54542C18.3086 3.08516 17.5625 3.08516 17.1022 3.54542L15.6667 4.98089C15.2064 5.44114 15.2064 6.18738 15.6667 6.64764C16.127 7.10789 16.8732 7.10789 17.3335 6.64764L18.7688 5.21217Z" fill="#EFEFEF"/>
</g>
<defs>
<clipPath id="clip0_2240_8061">
<rect width="22" height="22" fill="white" transform="translate(0 0.314087)"/>
</clipPath>
</defs>
</svg>
