<svg width="31" height="26" viewBox="0 0 31 26" fill="none" xmlns="http://www.w3.org/2000/svg">
<path d="M17.2978 25.1641V16.2184C17.2978 12.2248 18.3656 8.73701 20.501 5.75511C22.6364 2.71997 25.9176 0.856286 30.3447 0.164062V5.99473C27.7926 6.31422 26.0999 7.16619 25.2666 8.55064C24.4333 9.93509 24.0166 11.7722 24.0166 14.0618L19.4072 13.1034H30.1885V25.1641H17.2978ZM0.344727 25.1641V16.2184C0.344727 12.2248 1.41243 8.73701 3.54785 5.75511C5.68327 2.71997 8.96452 0.856286 13.3916 0.164062V5.99473C10.8395 6.31422 9.14681 7.16619 8.31347 8.55064C7.48014 9.93509 7.06348 11.7722 7.06348 14.0618L2.4541 13.1034H13.2354V25.1641H0.344727Z" fill="#DA000E"/>
</svg>
