<svg width="17" height="15" viewBox="0 0 17 15" fill="none" xmlns="http://www.w3.org/2000/svg">
<path d="M0.787442 1.67031C0.706115 1.58081 0.6525 1.46964 0.633097 1.35027C0.613695 1.23091 0.629338 1.10848 0.67813 0.997828C0.726923 0.887177 0.806769 0.793057 0.907987 0.72688C1.00921 0.660704 1.12745 0.625314 1.24838 0.625H14.9984C15.1194 0.625012 15.2379 0.660184 15.3394 0.726243C15.4408 0.792302 15.5209 0.886404 15.5699 0.997115C15.6189 1.10783 15.6346 1.23038 15.6153 1.34989C15.5959 1.4694 15.5423 1.58071 15.4609 1.67031L9.99838 7.5V12.082C9.99845 12.185 9.97309 12.2863 9.92457 12.3771C9.87606 12.4678 9.80587 12.5452 9.72025 12.6023L7.22025 14.2687C7.12622 14.3315 7.01692 14.3676 6.90401 14.3731C6.7911 14.3786 6.67881 14.3534 6.57908 14.3002C6.47935 14.247 6.39592 14.1677 6.33769 14.0708C6.27945 13.9739 6.24859 13.863 6.24838 13.75V7.5L0.787442 1.67031Z" stroke="black" stroke-width="1.25" stroke-linecap="round" stroke-linejoin="round"/>
</svg>
