<svg width="75" height="63" viewBox="0 0 75 63" fill="none" xmlns="http://www.w3.org/2000/svg">
<path d="M42.3828 62.2886V40.0002C42.3828 30.05 45.0521 21.3602 50.3906 13.9307C55.7292 6.36859 63.9323 1.72518 75 0.000488281V14.5277C68.6198 15.3238 64.388 17.4465 62.3047 20.8959C60.2214 24.3452 59.1797 28.9223 59.1797 34.6271L47.6562 32.2391H74.6094V62.2886H42.3828ZM0 62.2886V40.0002C0 30.05 2.66927 21.3602 8.00781 13.9307C13.3464 6.36859 21.5495 1.72518 32.6172 0.000488281V14.5277C26.237 15.3238 22.0052 17.4465 19.9219 20.8959C17.8385 24.3452 16.7969 28.9223 16.7969 34.6271L5.27344 32.2391H32.2266V62.2886H0Z" fill="#DA000E"/>
</svg>
