<svg width="17" height="22" viewBox="0 0 17 22" fill="none" xmlns="http://www.w3.org/2000/svg">
<g clip-path="url(#clip0_836_5500)">
<path d="M8.65088 21.6904C11.4553 21.6904 12.9925 21.6887 13.8501 21.6797C14.2781 21.6752 14.541 21.6689 14.7085 21.6592C14.8715 21.6497 14.9648 21.6369 15.0396 21.6094L15.0386 21.6084C15.4039 21.4817 15.7096 21.2558 15.939 20.9473L16.0327 20.8096L16.0337 20.8086C16.0787 20.7355 16.1637 20.6403 16.2104 20.4756C16.2548 20.3192 16.277 20.08 16.2915 19.6289C16.3208 18.7159 16.3159 16.8416 16.3159 12.7842V5.39648L16.2778 5.34277L16.1646 5.18652L16.1636 5.18457C16.1372 5.14875 16.0487 5.05295 15.9341 4.93066C15.8128 4.80132 15.6474 4.62664 15.4526 4.42285C15.063 4.01519 14.5553 3.48794 14.0474 2.96387C13.5394 2.43976 13.0303 1.91816 12.6401 1.52148C12.4453 1.3234 12.2794 1.15622 12.1577 1.03516C12.0971 0.974821 12.047 0.924912 12.0093 0.888672C11.9906 0.870713 11.9739 0.855008 11.9604 0.842773C11.9507 0.833918 11.9323 0.816922 11.9146 0.804688L11.9136 0.805664C11.8711 0.77629 11.8256 0.761381 11.7856 0.75293C11.7447 0.744294 11.6946 0.738019 11.6333 0.733398C11.5095 0.724067 11.3123 0.718859 10.9927 0.714844C10.672 0.710815 10.2227 0.708763 9.59131 0.708008H7.09619C4.99498 0.708008 3.83825 0.710156 3.18701 0.719727C2.86212 0.724502 2.65843 0.731512 2.5249 0.741211C2.39325 0.75078 2.31315 0.764138 2.24463 0.790039L2.24268 0.791016C1.81182 0.958677 1.49911 1.21098 1.26807 1.58496C1.22813 1.64953 1.1353 1.74585 1.08838 1.9248C1.04472 2.09164 1.02153 2.36389 1.00732 2.90137C0.978574 3.98994 0.984863 6.25938 0.984863 11.1973C0.984863 15.2896 0.98588 17.5209 0.994629 18.752C0.998999 19.3668 1.0049 19.7352 1.01416 19.9619C1.02305 20.1793 1.03472 20.2896 1.06104 20.3682H1.06201C1.24856 20.9445 1.69717 21.4096 2.26221 21.6084V21.6094H2.26318L2.26514 21.6104V21.6094C2.33937 21.6361 2.43164 21.6498 2.59229 21.6592C2.75979 21.6689 3.0228 21.6752 3.45068 21.6797C4.30832 21.6887 5.84619 21.6904 8.65088 21.6904ZM8.65088 20.3945C6.00636 20.3945 4.51609 20.3928 3.67139 20.3838C3.24868 20.3793 2.99083 20.3727 2.83154 20.3643C2.75168 20.36 2.70029 20.356 2.66748 20.3516C2.6322 20.3467 2.63066 20.3431 2.64111 20.3477L2.63818 20.3467C2.49907 20.288 2.37584 20.1662 2.30615 20.0127C2.30316 20.0063 2.2926 19.9748 2.28369 19.8145C2.2738 19.6364 2.26609 19.3232 2.26123 18.7471C2.25153 17.5964 2.25049 15.4129 2.25049 11.2051C2.25049 7.30298 2.25249 5.11685 2.26123 3.88965C2.2656 3.27555 2.27251 2.90349 2.28076 2.67773C2.2849 2.56478 2.28871 2.49143 2.29346 2.44434L2.29736 2.40234L2.29834 2.40039C2.3566 2.25278 2.47541 2.12621 2.62061 2.05566H2.62158C2.63005 2.05151 2.64472 2.04118 2.73193 2.03223C2.825 2.02268 2.98239 2.01577 3.26904 2.01074C3.83987 2.00074 4.89621 2 6.91357 2H10.9312V3.23242C10.9312 4.02084 10.9327 4.44782 10.9673 4.72461C10.9853 4.86861 11.0135 4.98004 11.0571 5.08594C11.0994 5.18861 11.1538 5.27957 11.2144 5.37793L11.2153 5.37891C11.453 5.75884 11.7933 6.03518 12.2124 6.17969C12.3255 6.22009 12.448 6.23836 12.6772 6.24805C12.9084 6.25781 13.2679 6.25977 13.8647 6.25977H15.0503V12.9932C15.0503 16.3311 15.0492 18.0679 15.0396 18.9893C15.0347 19.4511 15.0278 19.7035 15.0181 19.8486C15.0132 19.9209 15.0077 19.9609 15.0034 19.9834L14.9946 20.0127C14.9249 20.1662 14.8017 20.288 14.6626 20.3467L14.6606 20.3477C14.6708 20.3433 14.6683 20.3468 14.6333 20.3516C14.6005 20.356 14.5489 20.36 14.4692 20.3643C14.3099 20.3727 14.052 20.3793 13.6294 20.3838C12.7847 20.3928 11.2951 20.3945 8.65088 20.3945ZM13.6714 4.95605C13.1346 4.96215 12.8596 4.96028 12.6899 4.93555C12.6103 4.92393 12.5643 4.9085 12.5308 4.8916C12.4966 4.87435 12.4637 4.85013 12.4136 4.80469V4.80371C12.348 4.74477 12.314 4.70953 12.2905 4.67383C12.2695 4.64173 12.2508 4.59902 12.2358 4.52051C12.203 4.3475 12.1978 4.05823 12.1978 3.46191V2.92578L13.1655 3.92578L14.1548 4.9502L13.6714 4.95605Z" fill="black" stroke="white" stroke-width="0.411429"/>
<path d="M4.31885 18.165C4.6534 18.2901 5.05088 18.3201 5.38916 18.1865L5.54248 18.1191C6.31492 17.7448 7.11617 16.8245 7.72119 15.6689C7.81659 15.4888 7.85111 15.4294 7.88037 15.3975C7.8951 15.3814 7.90703 15.3711 8.01416 15.3301H8.01514C8.3837 15.1862 9.09652 14.9756 9.67139 14.8359H9.67041C9.921 14.776 10.0952 14.7331 10.2261 14.7041C10.3597 14.6745 10.4272 14.6647 10.4683 14.665C10.4949 14.6652 10.5045 14.6686 10.5239 14.6807C10.5628 14.7048 10.5946 14.7344 10.6909 14.8076L10.6919 14.8086C11.0859 15.1066 11.4174 15.3279 11.6987 15.4756C11.9774 15.6218 12.2259 15.7061 12.4478 15.7061C12.9797 15.706 13.4458 15.4952 13.6792 15.083L13.6802 15.082C13.7292 14.9944 13.765 14.9143 13.7876 14.8086C13.8087 14.7102 13.8169 14.5959 13.8228 14.4434V14.4424C13.8284 14.2853 13.8306 14.1708 13.8169 14.0742C13.8016 13.9669 13.7682 13.8885 13.7231 13.7998L13.7212 13.7969C13.5561 13.4816 13.2478 13.292 12.8452 13.2002C12.4455 13.1092 11.9314 13.1089 11.311 13.1865L10.8247 13.248L10.5483 13.0127C10.1871 12.7018 9.49491 11.9929 9.26318 11.7031L9.26221 11.7041L9.18604 11.6055L9.29053 11.2734L9.2915 11.2725C9.47409 10.6778 9.65745 9.94643 9.69092 9.65234C9.70914 9.49217 9.69796 9.24424 9.67334 9.01562C9.64882 8.78795 9.60798 8.54649 9.55713 8.40039L9.55615 8.39941C9.46533 8.14283 9.32394 7.93601 9.1167 7.79102C8.91145 7.64749 8.65967 7.57815 8.36865 7.56055L8.36963 7.55957C8.10883 7.54218 7.96291 7.55504 7.74756 7.63086V7.63184C7.08509 7.85715 6.77493 8.57638 6.7749 9.48828C6.7749 10.1245 7.07412 10.8928 7.57959 11.6338L7.75244 11.8916L7.46533 12.7803C7.29014 13.3238 7.08942 13.9174 7.02197 14.0918L7.021 14.0947L6.92432 14.3564L5.81982 14.9141C5.18059 15.2367 4.51677 15.5892 4.35498 15.6992V15.7002C3.9972 15.9362 3.7034 16.2339 3.57275 16.5137L3.57178 16.5166C3.50863 16.6577 3.47852 16.8369 3.47314 17.001C3.46784 17.1639 3.4863 17.3417 3.5415 17.4805V17.4824C3.67342 17.8067 3.98655 18.0408 4.31885 18.165ZM8.25928 10.2285C8.1222 9.93952 8.07073 9.72802 8.06494 9.46777C8.06126 9.10036 8.09993 8.97378 8.15771 8.89844L8.15967 8.89648C8.15978 8.89641 8.16564 8.88956 8.18408 8.88184C8.2037 8.87362 8.2303 8.86742 8.26025 8.86621C8.29034 8.86504 8.31793 8.86924 8.33838 8.87598C8.35617 8.88184 8.36347 8.88755 8.36475 8.88867L8.36768 8.89258C8.36816 8.89376 8.37283 8.90432 8.37646 8.93555C8.38042 8.96949 8.3822 9.0153 8.3833 9.08105V9.34766C8.3833 9.57994 8.38031 9.70291 8.36377 9.81738C8.34796 9.92665 8.31861 10.0342 8.25928 10.2285ZM8.61768 13.4014L8.61865 13.3994C8.65725 13.2769 8.69477 13.1622 8.72705 13.0645C8.80394 13.1419 8.89569 13.2332 8.99268 13.332L9.18604 13.5371C9.20322 13.5559 9.21854 13.5747 9.23389 13.5918C9.12853 13.6206 9.00247 13.6542 8.87061 13.6895C8.73473 13.7258 8.60221 13.7623 8.49072 13.793C8.52768 13.6778 8.57229 13.5422 8.61768 13.4014ZM4.83838 16.9648C4.88082 16.9287 4.94348 16.8813 5.03467 16.8223C5.14833 16.7487 5.29588 16.6644 5.48096 16.5635C5.26907 16.772 5.09997 16.8895 4.97021 16.9385C4.91732 16.9584 4.87446 16.9657 4.83838 16.9648Z" fill="#FF737C" stroke="white" stroke-width="0.411429"/>
</g>
<defs>
<clipPath id="clip0_836_5500">
<rect width="16.4571" height="20.5714" fill="white" transform="translate(0.48291 0.914062)"/>
</clipPath>
</defs>
</svg>
